<!DOCTYPE svg PUBLIC "-//W3C//DTD SVG 1.1//EN" "http://www.w3.org/Graphics/SVG/1.1/DTD/svg11.dtd">
<!-- Uploaded to: SVG Repo, www.svgrepo.com, Transformed by: SVG Repo Mixer Tools -->
<svg fill="#f5f5f5" height="64px" width="64px" version="1.1" id="Layer_1" xmlns="http://www.w3.org/2000/svg" xmlns:xlink="http://www.w3.org/1999/xlink" viewBox="0 0 512 512" xml:space="preserve" stroke="#f5f5f5">

<g id="SVGRepo_bgCarrier" stroke-width="0"/>

<g id="SVGRepo_tracerCarrier" stroke-linecap="round" stroke-linejoin="round"/>

<g id="SVGRepo_iconCarrier"> <g> <g> <path d="M77.469,229.382c-6.459,0-11.679,5.221-11.679,11.679c0,6.447,5.221,11.679,11.679,11.679 c6.447,0,11.679-5.232,11.679-11.679C89.149,234.602,83.916,229.382,77.469,229.382z"/> </g> </g> <g> <g> <path d="M77.469,229.382c-6.459,0-11.679,5.221-11.679,11.679c0,6.447,5.221,11.679,11.679,11.679 c6.447,0,11.679-5.232,11.679-11.679C89.149,234.602,83.916,229.382,77.469,229.382z"/> </g> </g> <g> <g> <path d="M390.92,201.223c-7.486-5.921-15.931-10.406-25.076-13.338c-10.57-3.387-22.424-4.31-34.559-2.604l-68.791,9.986 c-6.377,0.923-10.803,6.856-9.881,13.233c0.934,6.389,6.856,10.803,13.244,9.881l68.721-9.974 c2.838-0.397,5.699-0.596,8.491-0.596c5.571,0,10.827,0.783,15.65,2.324c6.47,2.067,12.439,5.244,17.718,9.414 c2.149,1.693,4.695,2.511,7.229,2.511c3.457,0,6.867-1.518,9.18-4.438C396.841,212.563,395.977,205.217,390.92,201.223z"/> </g> </g> <g> <g> <path d="M467.093,296.853c5.606-9.998,8.818-21.513,8.818-33.777c-0.21-58.444-37.713-109.669-93.33-127.469 c-18.383-5.898-38.74-7.522-58.864-4.695l-105.803,14.833c-3.177-5.162-7.381-9.6-12.462-13.058 c-8.316-5.664-18.255-8.339-28.79-7.895c-7.358-8.351-16.982-13.712-27.692-15.3c-27.61-4.076-54.297,18.453-59.495,50.21 c-0.607,3.714-0.911,7.416-0.899,11.095c-24.188,7.311-45.841,21.945-61.585,41.8C9.589,234.544,0,262.049,0,290.044 c0,23.324,18.956,42.291,42.279,42.291h364.42c14.903,0,28.708-4.754,40.025-12.801h11.878c16.561,0,30.039,13.478,30.039,30.039 c0,16.573-13.478,30.051-30.039,30.051H283.984c-6.459,0-11.679,5.232-11.679,11.679c0,6.447,5.221,11.679,11.679,11.679h174.618 c29.444,0,53.398-23.954,53.398-53.41C512,323.015,492.519,300.941,467.093,296.853z M112.519,163.475 c3.153-19.248,17.975-33.088,33.029-30.869c1.016,0.14,2.021,0.374,3.002,0.677c-7.557,4.403-14.366,10.348-19.902,17.531 c-2.955,3.819-5.443,7.884-7.463,12.076l-8.876,2.067C112.379,164.468,112.437,163.965,112.519,163.475z M406.699,308.976h-71.034 c3.212-5.314,8.561-9.262,14.961-10.546l29.619-5.921c6.33-1.261,10.43-7.416,9.168-13.735c-1.261-6.33-7.416-10.43-13.747-9.168 l-29.619,5.921c-17.496,3.504-31.079,16.795-35.482,33.45H132.537c3.2-5.314,8.549-9.262,14.95-10.546l29.631-5.921 c6.319-1.261,10.418-7.416,9.157-13.735c-1.261-6.33-7.416-10.43-13.747-9.168l-29.619,5.921 c-17.496,3.504-31.079,16.795-35.47,33.45H42.279c-10.441,0-18.921-8.491-18.921-18.932c0-22.751,7.79-45.094,21.934-62.928 c14.144-17.834,34.127-30.495,56.33-35.669l13.49-3.153c-0.035,4.485,0.479,8.923,1.6,13.186 c1.635,6.237,8.012,9.974,14.249,8.339c6.248-1.635,9.986-8.012,8.351-14.249c-2.488-9.519,0.432-20.906,7.825-30.483 c12.03-15.58,32.702-21.583,45.152-13.093c6.027,4.099,8.117,10.138,8.806,14.482c1.437,9.087-1.6,19.294-8.351,28.042 c-7.568,9.811-18.617,16.141-29.537,16.912c-6.435,0.456-11.282,6.038-10.827,12.474c0.444,6.155,5.571,10.85,11.644,10.85 c0.28,0,29.49-0.561,47.22-25.963c8.783-12.602,14.155-26.617,13.49-40.411l102.218-14.331 c16.678-2.336,33.438-1.028,48.504,3.807c45.947,14.704,76.92,57.019,77.096,105.266 C452.552,288.409,431.973,308.976,406.699,308.976z"/> </g> </g> <g> <g> <path d="M77.469,229.382c-6.459,0-11.679,5.221-11.679,11.679c0,6.447,5.221,11.679,11.679,11.679 c6.447,0,11.679-5.232,11.679-11.679C89.149,234.602,83.916,229.382,77.469,229.382z"/> </g> </g> <g id="SVGCleanerId_1"> <g> <path d="M390.92,201.223c-7.486-5.921-15.931-10.406-25.076-13.338c-10.57-3.387-22.424-4.31-34.559-2.604l-68.791,9.986 c-6.377,0.923-10.803,6.856-9.881,13.233c0.934,6.389,6.856,10.803,13.244,9.881l68.721-9.974 c2.838-0.397,5.699-0.596,8.491-0.596c5.571,0,10.827,0.783,15.65,2.324c6.47,2.067,12.439,5.244,17.718,9.414 c2.149,1.693,4.695,2.511,7.229,2.511c3.457,0,6.867-1.518,9.18-4.438C396.841,212.563,395.977,205.217,390.92,201.223z"/> </g> </g> <g> <g> <path d="M390.92,201.223c-7.486-5.921-15.931-10.406-25.076-13.338c-10.57-3.387-22.424-4.31-34.559-2.604l-68.791,9.986 c-6.377,0.923-10.803,6.856-9.881,13.233c0.934,6.389,6.856,10.803,13.244,9.881l68.721-9.974 c2.838-0.397,5.699-0.596,8.491-0.596c5.571,0,10.827,0.783,15.65,2.324c6.47,2.067,12.439,5.244,17.718,9.414 c2.149,1.693,4.695,2.511,7.229,2.511c3.457,0,6.867-1.518,9.18-4.438C396.841,212.563,395.977,205.217,390.92,201.223z"/> </g> </g> </g>

</svg>